<svg xmlns="http://www.w3.org/2000/svg" viewBox="0 0 800 420" font-family="Segoe UI, sans-serif">
<rect width="800" height="420" fill="#0d1117" rx="8"/>
<text x="64" y="30" fill="#e6edf3" font-size="17" font-weight="700">★ Star History — timoncool/Bulka</text>
<text x="776" y="30" fill="#e6edf3" font-size="14" text-anchor="end">40 stars · updated 2026-07-07</text>
<line x1="64" y1="364.0" x2="776" y2="364.0" stroke="#30363d" stroke-width="1"/><text x="54" y="368.0" fill="#e6edf3" font-size="13" text-anchor="end">0</text><line x1="64" y1="285.0" x2="776" y2="285.0" stroke="#30363d" stroke-width="1"/><text x="54" y="289.0" fill="#e6edf3" font-size="13" text-anchor="end">10</text><line x1="64" y1="206.0" x2="776" y2="206.0" stroke="#30363d" stroke-width="1"/><text x="54" y="210.0" fill="#e6edf3" font-size="13" text-anchor="end">20</text><line x1="64" y1="127.0" x2="776" y2="127.0" stroke="#30363d" stroke-width="1"/><text x="54" y="131.0" fill="#e6edf3" font-size="13" text-anchor="end">30</text><line x1="64" y1="48.0" x2="776" y2="48.0" stroke="#30363d" stroke-width="1"/><text x="54" y="52.0" fill="#e6edf3" font-size="13" text-anchor="end">40</text>
<path d="M64.0,364.0 L64.0,356.1 L68.4,348.2 L69.0,340.3 L109.8,332.4 L214.8,324.5 L335.9,316.6 L336.6,308.7 L336.6,300.8 L336.7,292.9 L336.7,285.0 L336.9,277.1 L336.9,269.2 L337.4,261.3 L337.8,253.4 L339.2,245.5 L339.3,237.6 L339.5,229.7 L339.5,221.8 L339.8,213.9 L339.8,206.0 L340.0,198.1 L342.3,190.2 L343.4,182.3 L344.1,174.4 L346.9,166.5 L347.0,158.6 L348.5,150.7 L352.8,142.8 L362.9,134.9 L364.3,127.0 L429.4,119.1 L488.7,111.2 L494.5,103.3 L504.9,95.4 L507.2,87.5 L518.8,79.6 L519.3,71.7 L523.6,63.8 L571.6,55.9 L716.0,48.0 L776.0,48.0" fill="none" stroke="#4f8ff7" stroke-width="2.5" stroke-linejoin="round"/>
<circle cx="776.0" cy="48.0" r="4" fill="#4f8ff7"/>
<text x="64.0" y="388" fill="#e6edf3" font-size="13" text-anchor="middle">Dec 15, 2025</text><text x="301.3" y="388" fill="#e6edf3" font-size="13" text-anchor="middle">Feb 21, 2026</text><text x="538.7" y="388" fill="#e6edf3" font-size="13" text-anchor="middle">Apr 30, 2026</text><text x="776.0" y="388" fill="#e6edf3" font-size="13" text-anchor="middle">Jul 07, 2026</text>
</svg>