<svg xmlns="http://www.w3.org/2000/svg" viewBox="0 0 800 420" font-family="Segoe UI, sans-serif">
<rect width="800" height="420" fill="#0d1117" rx="8"/>
<text x="64" y="30" fill="#e6edf3" font-size="17" font-weight="700">★ Star History — timoncool/Bulka</text>
<text x="776" y="30" fill="#e6edf3" font-size="14" text-anchor="end">48 stars · updated 2026-10-03</text>
<line x1="64" y1="364.0" x2="776" y2="364.0" stroke="#30363d" stroke-width="1"/><text x="54" y="368.0" fill="#e6edf3" font-size="13" text-anchor="end">0</text><line x1="64" y1="285.0" x2="776" y2="285.0" stroke="#30363d" stroke-width="1"/><text x="54" y="289.0" fill="#e6edf3" font-size="13" text-anchor="end">12</text><line x1="64" y1="206.0" x2="776" y2="206.0" stroke="#30363d" stroke-width="1"/><text x="54" y="210.0" fill="#e6edf3" font-size="13" text-anchor="end">24</text><line x1="64" y1="127.0" x2="776" y2="127.0" stroke="#30363d" stroke-width="1"/><text x="54" y="131.0" fill="#e6edf3" font-size="13" text-anchor="end">36</text><line x1="64" y1="48.0" x2="776" y2="48.0" stroke="#30363d" stroke-width="1"/><text x="54" y="52.0" fill="#e6edf3" font-size="13" text-anchor="end">48</text>
<path d="M64.0,364.0 L64.0,357.4 L67.1,350.8 L67.5,344.2 L96.0,337.7 L169.4,331.1 L254.1,324.5 L254.6,317.9 L254.6,311.3 L254.6,304.8 L254.6,298.2 L254.8,291.6 L254.8,285.0 L255.2,278.4 L255.4,271.8 L256.4,265.2 L256.5,258.7 L256.6,252.1 L256.6,245.5 L256.8,238.9 L256.8,232.3 L256.9,225.8 L258.6,219.2 L259.3,212.6 L259.8,206.0 L261.8,199.4 L261.8,192.8 L262.9,186.2 L265.9,179.7 L272.9,173.1 L273.9,166.5 L319.4,159.9 L360.9,153.3 L365.0,146.8 L372.2,140.2 L373.8,133.6 L381.9,127.0 L382.3,120.4 L385.3,113.8 L418.9,107.2 L519.8,100.7 L662.0,94.1 L663.7,87.5 L669.7,80.9 L699.1,74.3 L701.7,67.8 L704.2,61.2 L730.1,54.6 L737.1,48.0 L776.0,48.0" fill="none" stroke="#4f8ff7" stroke-width="2.5" stroke-linejoin="round"/>
<circle cx="776.0" cy="48.0" r="4" fill="#4f8ff7"/>
<text x="64.0" y="388" fill="#e6edf3" font-size="13" text-anchor="middle">Dec 15, 2025</text><text x="301.3" y="388" fill="#e6edf3" font-size="13" text-anchor="middle">Mar 22, 2026</text><text x="538.7" y="388" fill="#e6edf3" font-size="13" text-anchor="middle">Jun 28, 2026</text><text x="776.0" y="388" fill="#e6edf3" font-size="13" text-anchor="middle">Oct 03, 2026</text>
</svg>