<svg xmlns="http://www.w3.org/2000/svg" viewBox="0 0 800 420" font-family="Segoe UI, sans-serif">
<rect width="800" height="420" fill="#0d1117" rx="8"/>
<text x="64" y="30" fill="#e6edf3" font-size="17" font-weight="700">★ Star History — timoncool/Bulka</text>
<text x="776" y="30" fill="#e6edf3" font-size="14" text-anchor="end">51 stars · updated 2026-10-09</text>
<line x1="64" y1="364.0" x2="776" y2="364.0" stroke="#30363d" stroke-width="1"/><text x="54" y="368.0" fill="#e6edf3" font-size="13" text-anchor="end">0</text><line x1="64" y1="283.5" x2="776" y2="283.5" stroke="#30363d" stroke-width="1"/><text x="54" y="287.5" fill="#e6edf3" font-size="13" text-anchor="end">13</text><line x1="64" y1="202.9" x2="776" y2="202.9" stroke="#30363d" stroke-width="1"/><text x="54" y="206.9" fill="#e6edf3" font-size="13" text-anchor="end">26</text><line x1="64" y1="128.5" x2="776" y2="128.5" stroke="#30363d" stroke-width="1"/><text x="54" y="132.5" fill="#e6edf3" font-size="13" text-anchor="end">38</text><line x1="64" y1="48.0" x2="776" y2="48.0" stroke="#30363d" stroke-width="1"/><text x="54" y="52.0" fill="#e6edf3" font-size="13" text-anchor="end">51</text>
<path d="M64.0,364.0 L64.0,357.8 L67.0,351.6 L67.4,345.4 L95.4,339.2 L167.3,333.0 L250.2,326.8 L250.7,320.6 L250.7,314.4 L250.7,308.2 L250.8,302.0 L250.9,295.8 L250.9,289.6 L251.3,283.5 L251.5,277.3 L252.5,271.1 L252.5,264.9 L252.7,258.7 L252.7,252.5 L252.9,246.3 L252.9,240.1 L253.0,233.9 L254.6,227.7 L255.3,221.5 L255.8,215.3 L257.8,209.1 L257.8,202.9 L258.8,196.7 L261.8,190.5 L268.7,184.3 L269.6,178.1 L314.2,171.9 L354.9,165.7 L358.8,159.5 L366.0,153.3 L367.5,147.1 L375.5,140.9 L375.8,134.7 L378.8,128.5 L411.7,122.4 L510.5,116.2 L649.9,110.0 L651.5,103.8 L657.4,97.6 L686.1,91.4 L688.7,85.2 L691.2,79.0 L716.6,72.8 L723.4,66.6 L772.5,60.4 L772.9,54.2 L774.2,48.0 L776.0,48.0" fill="none" stroke="#4f8ff7" stroke-width="2.5" stroke-linejoin="round"/>
<circle cx="776.0" cy="48.0" r="4" fill="#4f8ff7"/>
<text x="64.0" y="388" fill="#e6edf3" font-size="13" text-anchor="middle">Dec 15, 2025</text><text x="301.3" y="388" fill="#e6edf3" font-size="13" text-anchor="middle">Mar 24, 2026</text><text x="538.7" y="388" fill="#e6edf3" font-size="13" text-anchor="middle">Jul 02, 2026</text><text x="776.0" y="388" fill="#e6edf3" font-size="13" text-anchor="middle">Oct 09, 2026</text>
</svg>