<svg xmlns="http://www.w3.org/2000/svg" viewBox="0 0 800 420" font-family="Segoe UI, sans-serif">
<rect width="800" height="420" fill="#0d1117" rx="8"/>
<text x="64" y="30" fill="#e6edf3" font-size="17" font-weight="700">★ Star History — timoncool/Bulka</text>
<text x="776" y="30" fill="#e6edf3" font-size="14" text-anchor="end">43 stars · updated 2026-08-31</text>
<line x1="64" y1="364.0" x2="776" y2="364.0" stroke="#30363d" stroke-width="1"/><text x="54" y="368.0" fill="#e6edf3" font-size="13" text-anchor="end">0</text><line x1="64" y1="283.2" x2="776" y2="283.2" stroke="#30363d" stroke-width="1"/><text x="54" y="287.2" fill="#e6edf3" font-size="13" text-anchor="end">11</text><line x1="64" y1="202.3" x2="776" y2="202.3" stroke="#30363d" stroke-width="1"/><text x="54" y="206.3" fill="#e6edf3" font-size="13" text-anchor="end">22</text><line x1="64" y1="128.8" x2="776" y2="128.8" stroke="#30363d" stroke-width="1"/><text x="54" y="132.8" fill="#e6edf3" font-size="13" text-anchor="end">32</text><line x1="64" y1="48.0" x2="776" y2="48.0" stroke="#30363d" stroke-width="1"/><text x="54" y="52.0" fill="#e6edf3" font-size="13" text-anchor="end">43</text>
<path d="M64.0,364.0 L64.0,356.7 L67.5,349.3 L68.0,342.0 L100.1,334.6 L182.9,327.3 L278.3,319.9 L278.8,312.6 L278.9,305.2 L278.9,297.9 L278.9,290.5 L279.1,283.2 L279.1,275.8 L279.5,268.5 L279.7,261.1 L280.9,253.8 L281.0,246.4 L281.1,239.1 L281.2,231.7 L281.3,224.4 L281.4,217.0 L281.5,209.7 L283.3,202.3 L284.2,195.0 L284.8,187.6 L287.0,180.3 L287.0,172.9 L288.2,165.6 L291.6,158.2 L299.6,150.9 L300.6,143.5 L352.0,136.2 L398.7,128.8 L403.3,121.5 L411.5,114.1 L413.3,106.8 L422.4,99.4 L422.9,92.1 L426.2,84.7 L464.1,77.4 L577.8,70.0 L738.2,62.7 L740.1,55.3 L746.9,48.0 L776.0,48.0" fill="none" stroke="#4f8ff7" stroke-width="2.5" stroke-linejoin="round"/>
<circle cx="776.0" cy="48.0" r="4" fill="#4f8ff7"/>
<text x="64.0" y="388" fill="#e6edf3" font-size="13" text-anchor="middle">Dec 15, 2025</text><text x="301.3" y="388" fill="#e6edf3" font-size="13" text-anchor="middle">Mar 11, 2026</text><text x="538.7" y="388" fill="#e6edf3" font-size="13" text-anchor="middle">Jun 06, 2026</text><text x="776.0" y="388" fill="#e6edf3" font-size="13" text-anchor="middle">Aug 31, 2026</text>
</svg>