<svg xmlns="http://www.w3.org/2000/svg" viewBox="0 0 800 420" font-family="Segoe UI, sans-serif">
<rect width="800" height="420" fill="#ffffff" rx="8"/>
<text x="64" y="30" fill="#1f2328" font-size="17" font-weight="700">★ Star History — timoncool/Bulka</text>
<text x="776" y="30" fill="#1f2328" font-size="14" text-anchor="end">48 stars · updated 2026-10-01</text>
<line x1="64" y1="364.0" x2="776" y2="364.0" stroke="#d1d9e0" stroke-width="1"/><text x="54" y="368.0" fill="#1f2328" font-size="13" text-anchor="end">0</text><line x1="64" y1="285.0" x2="776" y2="285.0" stroke="#d1d9e0" stroke-width="1"/><text x="54" y="289.0" fill="#1f2328" font-size="13" text-anchor="end">12</text><line x1="64" y1="206.0" x2="776" y2="206.0" stroke="#d1d9e0" stroke-width="1"/><text x="54" y="210.0" fill="#1f2328" font-size="13" text-anchor="end">24</text><line x1="64" y1="127.0" x2="776" y2="127.0" stroke="#d1d9e0" stroke-width="1"/><text x="54" y="131.0" fill="#1f2328" font-size="13" text-anchor="end">36</text><line x1="64" y1="48.0" x2="776" y2="48.0" stroke="#d1d9e0" stroke-width="1"/><text x="54" y="52.0" fill="#1f2328" font-size="13" text-anchor="end">48</text>
<path d="M64.0,364.0 L64.0,357.4 L67.1,350.8 L67.5,344.2 L96.2,337.7 L170.1,331.1 L255.4,324.5 L255.8,317.9 L255.9,311.3 L255.9,304.8 L255.9,298.2 L256.1,291.6 L256.1,285.0 L256.4,278.4 L256.7,271.8 L257.7,265.2 L257.8,258.7 L257.9,252.1 L257.9,245.5 L258.1,238.9 L258.1,232.3 L258.3,225.8 L259.9,219.2 L260.6,212.6 L261.1,206.0 L263.1,199.4 L263.1,192.8 L264.2,186.2 L267.3,179.7 L274.4,173.1 L275.3,166.5 L321.1,159.9 L362.9,153.3 L367.0,146.8 L374.3,140.2 L375.9,133.6 L384.1,127.0 L384.5,120.4 L387.5,113.8 L421.3,107.2 L522.8,100.7 L666.1,94.1 L667.8,87.5 L673.8,80.9 L703.3,74.3 L706.0,67.8 L708.5,61.2 L734.6,54.6 L741.6,48.0 L776.0,48.0" fill="none" stroke="#0969da" stroke-width="2.5" stroke-linejoin="round"/>
<circle cx="776.0" cy="48.0" r="4" fill="#0969da"/>
<text x="64.0" y="388" fill="#1f2328" font-size="13" text-anchor="middle">Dec 15, 2025</text><text x="301.3" y="388" fill="#1f2328" font-size="13" text-anchor="middle">Mar 22, 2026</text><text x="538.7" y="388" fill="#1f2328" font-size="13" text-anchor="middle">Jun 26, 2026</text><text x="776.0" y="388" fill="#1f2328" font-size="13" text-anchor="middle">Oct 01, 2026</text>
</svg>