<svg xmlns="http://www.w3.org/2000/svg" viewBox="0 0 800 420" font-family="Segoe UI, sans-serif">
<rect width="800" height="420" fill="#ffffff" rx="8"/>
<text x="64" y="30" fill="#1f2328" font-size="17" font-weight="700">★ Star History — timoncool/Bulka</text>
<text x="776" y="30" fill="#1f2328" font-size="14" text-anchor="end">48 stars · updated 2026-09-26</text>
<line x1="64" y1="364.0" x2="776" y2="364.0" stroke="#d1d9e0" stroke-width="1"/><text x="54" y="368.0" fill="#1f2328" font-size="13" text-anchor="end">0</text><line x1="64" y1="285.0" x2="776" y2="285.0" stroke="#d1d9e0" stroke-width="1"/><text x="54" y="289.0" fill="#1f2328" font-size="13" text-anchor="end">12</text><line x1="64" y1="206.0" x2="776" y2="206.0" stroke="#d1d9e0" stroke-width="1"/><text x="54" y="210.0" fill="#1f2328" font-size="13" text-anchor="end">24</text><line x1="64" y1="127.0" x2="776" y2="127.0" stroke="#d1d9e0" stroke-width="1"/><text x="54" y="131.0" fill="#1f2328" font-size="13" text-anchor="end">36</text><line x1="64" y1="48.0" x2="776" y2="48.0" stroke="#d1d9e0" stroke-width="1"/><text x="54" y="52.0" fill="#1f2328" font-size="13" text-anchor="end">48</text>
<path d="M64.0,364.0 L64.0,357.4 L67.1,350.8 L67.6,344.2 L96.8,337.7 L172.0,331.1 L258.8,324.5 L259.3,317.9 L259.3,311.3 L259.3,304.8 L259.3,298.2 L259.5,291.6 L259.5,285.0 L259.9,278.4 L260.1,271.8 L261.1,265.2 L261.2,258.7 L261.3,252.1 L261.4,245.5 L261.5,238.9 L261.6,232.3 L261.7,225.8 L263.4,219.2 L264.1,212.6 L264.6,206.0 L266.7,199.4 L266.7,192.8 L267.8,186.2 L270.9,179.7 L278.1,173.1 L279.1,166.5 L325.7,159.9 L368.2,153.3 L372.4,146.8 L379.8,140.2 L381.4,133.6 L389.8,127.0 L390.2,120.4 L393.2,113.8 L427.6,107.2 L531.0,100.7 L676.8,94.1 L678.5,87.5 L684.7,80.9 L714.7,74.3 L717.4,67.8 L720.0,61.2 L746.5,54.6 L753.7,48.0 L776.0,48.0" fill="none" stroke="#0969da" stroke-width="2.5" stroke-linejoin="round"/>
<circle cx="776.0" cy="48.0" r="4" fill="#0969da"/>
<text x="64.0" y="388" fill="#1f2328" font-size="13" text-anchor="middle">Dec 15, 2025</text><text x="301.3" y="388" fill="#1f2328" font-size="13" text-anchor="middle">Mar 20, 2026</text><text x="538.7" y="388" fill="#1f2328" font-size="13" text-anchor="middle">Jun 23, 2026</text><text x="776.0" y="388" fill="#1f2328" font-size="13" text-anchor="middle">Sep 26, 2026</text>
</svg>